<svg width="25" height="19" viewBox="0 0 25 19" fill="none" xmlns="http://www.w3.org/2000/svg">
<path d="M2.00919 6.85636L10.7659 10.4603C11.1761 10.6278 11.6114 10.7157 12.0551 10.7157C12.4988 10.7157 12.9342 10.6278 13.3444 10.4603L23.4908 6.28291C23.8675 6.12803 24.1103 5.76386 24.1103 5.35784C24.1103 4.95182 23.8675 4.58765 23.4908 4.43278L13.3444 0.255335C12.9342 0.087902 12.4988 0 12.0551 0C11.6114 0 11.1761 0.087902 10.7659 0.255335L0.6195 4.43278C0.242777 4.58765 0 4.95182 0 5.35784V17.7478C0 18.3046 0.447882 18.7524 1.0046 18.7524C1.56131 18.7524 2.00919 18.3046 2.00919 17.7478V6.85636ZM4.01838 9.85759V14.7341C4.01838 16.9525 7.61818 18.7524 12.0551 18.7524C16.4921 18.7524 20.0919 16.9525 20.0919 14.7341V9.8534L14.1104 12.3188C13.4574 12.5867 12.7625 12.7249 12.0551 12.7249C11.3477 12.7249 10.6529 12.5867 9.99991 12.3188L4.01838 9.8534V9.85759Z" fill="#2B2B2B"/>
</svg>
