<svg width="25" height="19" viewBox="0 0 25 19" fill="none" xmlns="http://www.w3.org/2000/svg">
<path d="M12.0547 0.5C12.4312 0.5 12.8028 0.573545 13.1543 0.716797V0.717773L23.3008 4.89551C23.4891 4.97303 23.6102 5.15365 23.6104 5.35742C23.6104 5.56138 23.4893 5.74275 23.3008 5.82031L13.1553 9.99707C12.8033 10.1407 12.4318 10.2158 12.0547 10.2158C11.6778 10.2158 11.3059 10.1407 10.9541 9.99707L2.19922 6.39355L1.50879 6.11035V17.748C1.50868 18.0284 1.28525 18.2528 1.00488 18.2529C0.724378 18.2529 0.500106 18.0285 0.5 17.748V5.35742L0.505859 5.28223C0.531705 5.11005 0.644754 4.96332 0.80957 4.89551L10.9561 0.717773L10.9551 0.716797C11.3067 0.573394 11.678 0.50006 12.0547 0.5ZM19.5918 14.7344C19.5916 15.552 18.9151 16.4272 17.5137 17.1279C16.1421 17.8137 14.2123 18.2529 12.0547 18.2529C9.8973 18.2529 7.96813 17.8136 6.59668 17.1279C5.19527 16.4272 4.51873 15.552 4.51855 14.7344V10.5996L9.80957 12.7812H9.81055C10.5231 13.0735 11.282 13.2246 12.0547 13.2246C12.8276 13.2246 13.5871 13.0736 14.2998 12.7812H14.3008L19.5918 10.5996V14.7344Z" stroke="#2B2B2B"/>
</svg>
