<svg width="48" height="48" viewBox="0 0 48 48" fill="none" xmlns="http://www.w3.org/2000/svg">
<path d="M9.14375 35.8625C11.1625 34.3188 13.4188 33.1016 15.9125 32.2109C18.4063 31.3203 21.0188 30.875 23.75 30.875C26.4812 30.875 29.0938 31.3203 31.5875 32.2109C34.0813 33.1016 36.3375 34.3188 38.3562 35.8625C39.7417 34.2396 40.8203 32.399 41.5922 30.3406C42.3641 28.2823 42.75 26.0854 42.75 23.75C42.75 18.4854 40.8995 14.0026 37.1984 10.3016C33.4974 6.60052 29.0146 4.75 23.75 4.75C18.4854 4.75 14.0026 6.60052 10.3016 10.3016C6.60052 14.0026 4.75 18.4854 4.75 23.75C4.75 26.0854 5.13594 28.2823 5.90781 30.3406C6.67969 32.399 7.75833 34.2396 9.14375 35.8625ZM23.75 26.125C21.4146 26.125 19.4453 25.3234 17.8422 23.7203C16.2391 22.1172 15.4375 20.1479 15.4375 17.8125C15.4375 15.4771 16.2391 13.5078 17.8422 11.9047C19.4453 10.3016 21.4146 9.5 23.75 9.5C26.0854 9.5 28.0547 10.3016 29.6578 11.9047C31.2609 13.5078 32.0625 15.4771 32.0625 17.8125C32.0625 20.1479 31.2609 22.1172 29.6578 23.7203C28.0547 25.3234 26.0854 26.125 23.75 26.125ZM23.75 47.5C20.4646 47.5 17.3771 46.8766 14.4875 45.6297C11.5979 44.3828 9.08437 42.6906 6.94687 40.5531C4.80937 38.4156 3.11719 35.9021 1.87031 33.0125C0.623437 30.1229 0 27.0354 0 23.75C0 20.4646 0.623437 17.3771 1.87031 14.4875C3.11719 11.5979 4.80937 9.08437 6.94687 6.94687C9.08437 4.80937 11.5979 3.11719 14.4875 1.87031C17.3771 0.623437 20.4646 0 23.75 0C27.0354 0 30.1229 0.623437 33.0125 1.87031C35.9021 3.11719 38.4156 4.80937 40.5531 6.94687C42.6906 9.08437 44.3828 11.5979 45.6297 14.4875C46.8766 17.3771 47.5 20.4646 47.5 23.75C47.5 27.0354 46.8766 30.1229 45.6297 33.0125C44.3828 35.9021 42.6906 38.4156 40.5531 40.5531C38.4156 42.6906 35.9021 44.3828 33.0125 45.6297C30.1229 46.8766 27.0354 47.5 23.75 47.5Z" fill="#2B2B2B"/>
</svg>
